<!DOCTYPE svg PUBLIC "-//W3C//DTD SVG 1.1//EN" "http://www.w3.org/Graphics/SVG/1.1/DTD/svg11.dtd">
<!-- Uploaded to: SVG Repo, www.svgrepo.com, Transformed by: SVG Repo Mixer Tools -->
<svg version="1.0" id="Layer_1" xmlns="http://www.w3.org/2000/svg" xmlns:xlink="http://www.w3.org/1999/xlink" width="800px" height="800px" viewBox="0 0 64 64" enable-background="new 0 0 64 64" xml:space="preserve" fill="#ffffff">
<g id="SVGRepo_bgCarrier" stroke-width="0"/>
<g id="SVGRepo_tracerCarrier" stroke-linecap="round" stroke-linejoin="round"/>
<g id="SVGRepo_iconCarrier"> <g> <path fill-rule="evenodd" clip-rule="evenodd" fill="#f7f7f7" d="M60,0H20c-2.211,0-4,1.789-4,4v4H4c-2.211,0-4,1.789-4,4v28 c0,2.211,1.789,4,4,4h12v16c0,2.211,1.789,4,4,4h40c2.211,0,4-1.789,4-4V4C64,1.789,62.211,0,60,0z M16,36H8V16h8V36z M56,56H24V8 h32V56z"/> <rect x="24" y="8" fill-rule="evenodd" clip-rule="evenodd" fill="#f7cc55" width="32" height="48"/> </g> </g>
</svg>